# xmcd
#
# Track frame offsets: 
#        182
#        16397
#        30760
#        54885
#        66970
#        82032
#        98050
#        109895
#        121722
#        140917
#        152137
#        166242
#
# Disc length: 2408 seconds
#
# Revision: 2
# Processed by: cddbd v1.5.2PL0 Copyright (c) Steve Scherf et al.
# Submitted via: ExactAudioCopy v0.99pb5
#
DISCID=9209660c
DTITLE=Smokin Joe KUBEK - The Axe Man
DYEAR=1991
DGENRE=Blues
TTITLE0=Little Wheel
TTITLE1=I Ain't Superstitious
TTITLE2=Right Place Wrong Time
TTITLE3=T. Bone Shuffle
TTITLE4=Buzz Me Baby
TTITLE5=Back Door Man
TTITLE6=C.C. Baby
TTITLE7=Goin to New York
TTITLE8=Same Thang
TTITLE9=4 O'clock Blues
TTITLE10=Hideaway
TTITLE11=Cross Cut Saw
EXTD=
EXTT0=
EXTT1=
EXTT2=
EXTT3=
EXTT4=
EXTT5=
EXTT6=
EXTT7=
EXTT8=
EXTT9=
EXTT10=
EXTT11=
PLAYORDER=
